{"title":"Aliens vs Avatars (2011) BDRip XviD-AT","uid":7191072,"size":739464569,"categoryP":"video","categoryS":"movies","magnet":"?xt=urn:btih:528e5347ec0ab392fb38827916eec128d954c224&amp;dn=Aliens+vs+Avatars+%282011%29+BDRip+XviD-AT&amp;tr=udp%3A%2F%2Ftracker.openbittorrent.com%3A80&amp;tr=udp%3A%2F%2Fopen.demonii.com%3A1337&amp;tr=udp%3A%2F%2Ftracker.coppersurfer.tk%3A6969&amp;tr=udp%3A%2F%2Fexodus.desync.com%3A6969","seeders":1,"leechers":0,"uploader":".BONE.","files":3,"time":1334625480,"description":"A race of creatures known as the Scythe have become a plague in the universe. Cunning and powerful foes, they possess the ability to transform into anything from which they have consumed DNA. On a mission to stop the plague that her people unleashed, a beautiful alien named Ava has followed the Scythe to Earth. Meanwhile, six college friends blowing off steam on a camping trip find themselves caught up in a cat and mouse hunt with the Scythe. Not knowing what to do or whom to trust, they struggle to protect themselves and keep it together. Reluctantly joining forces with Ava, they quickly learn what they are up against. \n\nVideo\nID : 0\nFormat : MPEG-4 Visual\nFormat profile : Advanced Simple@L5\nFormat settings, BVOP : Yes\nFormat settings, QPel : No\nFormat settings, GMC : No warppoints\nFormat settings, Matrix : Custom\nCodec ID : XVID\nCodec ID/Hint : XviD\nDuration : 1h 19mn\nBit rate : 1 113 Kbps\nWidth : 608 pixels\nHeight : 352 pixels\nDisplay aspect ratio : 16:9\nFrame rate : 23.976 fps\nColor space : YUV\nChroma subsampling : 4:2:0\nBit depth : 8 bits\nScan type : Progressive\nBits/(Pixel*Frame) : 0.217\nStream size : 631 MiB (90%)\nWriting library : XviD 1.2.1 (UTC 2008-12-04)\n\nAudio\nID : 1\nFormat : MPEG Audio\nFormat version : Version 1\nFormat profile : Layer 3\nMode : Joint stereo\nMode extension : MS Stereo\nCodec ID : 55\nCodec ID/Hint : MP3\nDuration : 1h 19mn\nBit rate mode : Variable\nBit rate : 118 Kbps\nNominal bit rate : 128 Kbps\nChannel(s) : 2 channels\nSampling rate : 48.0 KHz\nStream size : 66.8 MiB (9%)\nAlignment : Aligned on interleaves\nInterleave, duration : 24 ms (0.58 video frame)\nInterleave, preload duration : 156 ms\nWriting library : LAME3.98r\nEncoding settings : -m j -V 4 -q 2 -lowpass 17 --abr 128","torrent":{"xt":"urn:btih:528e5347ec0ab392fb38827916eec128d954c224","amp;dn":"Aliens+vs+Avatars+%282011%29+BDRip+XviD-AT","amp;tr":["udp%3A%2F%2Ftracker.openbittorrent.com%3A80","udp%3A%2F%2Fopen.demonii.com%3A1337","udp%3A%2F%2Ftracker.coppersurfer.tk%3A6969","udp%3A%2F%2Fexodus.desync.com%3A6969"],"infoHash":"528e5347ec0ab392fb38827916eec128d954c224","infoHashBuffer":{"type":"Buffer","data":[82,142,83,71,236,10,179,146,251,56,130,121,22,238,193,40,217,84,194,36]},"announce":[],"urlList":[]}}